<svg width="720" height="960" viewBox="0 0 720 960" fill="none" xmlns="http://www.w3.org/2000/svg">
  <rect width="720" height="960" rx="48" fill="#EFE1FF"/>
  <rect x="40" y="40" width="640" height="880" rx="36" fill="url(#paint0_linear)"/>
  <circle cx="360" cy="292" r="156" fill="#FAF5FF"/>
  <path d="M268 282C268 230.086 310.086 188 362 188H384C435.914 188 478 230.086 478 282V340H268V282Z" fill="#352144"/>
  <rect x="246" y="400" width="228" height="270" rx="114" fill="#FAF5FF"/>
  <path d="M224 782C224 708.994 283.194 650 356.2 650H367.8C440.806 650 500 708.994 500 782V822H224V782Z" fill="#CDA7FF"/>
  <rect x="168" y="762" width="384" height="96" rx="32" fill="#FAF5FF" fill-opacity="0.76"/>
  <text x="360" y="821" text-anchor="middle" fill="#6E38A3" font-family="Arial, sans-serif" font-size="46" font-weight="700">JAEHYUN</text>
  <defs>
    <linearGradient id="paint0_linear" x1="104" y1="96" x2="624" y2="880" gradientUnits="userSpaceOnUse">
      <stop stop-color="#B77CFF"/>
      <stop offset="1" stop-color="#E6D1FF"/>
    </linearGradient>
  </defs>
</svg>
