<svg width="720" height="960" viewBox="0 0 720 960" fill="none" xmlns="http://www.w3.org/2000/svg">
  <rect width="720" height="960" rx="48" fill="#E6F0FF"/>
  <rect x="40" y="40" width="640" height="880" rx="36" fill="url(#paint0_linear)"/>
  <circle cx="360" cy="288" r="156" fill="#F7FAFF"/>
  <path d="M270 280C270 230.294 310.294 190 360 190H390C439.706 190 480 230.294 480 280V340H270V280Z" fill="#233147"/>
  <rect x="246" y="398" width="228" height="270" rx="114" fill="#F7FAFF"/>
  <path d="M222 782C222 708.994 281.194 650 354.2 650H365.8C438.806 650 498 708.994 498 782V822H222V782Z" fill="#A5C7FF"/>
  <rect x="164" y="762" width="392" height="96" rx="32" fill="#F7FAFF" fill-opacity="0.76"/>
  <text x="360" y="821" text-anchor="middle" fill="#315EA8" font-family="Arial, sans-serif" font-size="44" font-weight="700">SUNGHOON</text>
  <defs>
    <linearGradient id="paint0_linear" x1="100" y1="86" x2="620" y2="884" gradientUnits="userSpaceOnUse">
      <stop stop-color="#8DB6FF"/>
      <stop offset="1" stop-color="#DDEBFF"/>
    </linearGradient>
  </defs>
</svg>
